<svg width="159" height="51" viewBox="0 0 159 51" fill="none" xmlns="http://www.w3.org/2000/svg">
<g clip-path="url(#clip0_10922_17525)">
<mask id="mask0_10922_17525" style="mask-type:luminance" maskUnits="userSpaceOnUse" x="0" y="0" width="159" height="51">
<path d="M159 0H0V51H159V0Z" fill="white"/>
</mask>
<g mask="url(#mask0_10922_17525)">
<path d="M82.2723 28.0043C82.2723 29.2577 81.8919 30.3447 81.2395 31.3787C80.5316 32.4128 79.5542 33.1744 78.3576 33.7746C77.1056 34.3724 75.7478 34.7002 74.2237 34.7002C72.6996 34.7002 71.3972 34.3724 70.4727 33.6662C69.5482 33.013 69.1124 32.0319 69.1124 30.8365C69.1124 28.3876 70.7448 27.1342 74.0599 27.1342H82.3252V28.0043H82.2698H82.2723ZM88.1469 21.8531C88.1469 18.4787 87.1141 15.8659 85.1013 14.0677C83.0356 12.272 80.0983 11.3994 76.239 11.3994C72.3797 11.3994 69.9865 12.1611 67.81 13.6314C65.636 15.1547 64.3285 17.2782 63.8398 20.1104H69.984C70.6919 17.6061 72.7576 16.3552 76.1836 16.3552C79.6096 16.3552 82.3277 18.1508 82.3277 21.7447V22.8871H73.7375C70.3669 22.8871 67.81 23.5958 65.9609 25.0662C64.1673 26.5365 63.2428 28.5491 63.2428 31.1644C63.2428 33.7797 64.1119 35.6838 65.908 37.2071C67.7017 38.7304 70.1503 39.4946 73.2488 39.4946C76.3473 39.4946 77.4356 39.0583 79.0126 38.2436C80.5895 37.4265 81.8415 36.2286 82.819 34.7053H84.7209V39.0053H91.0842V32.7986H88.1469V21.8557V21.8531Z" fill="#0D1211"/>
<path d="M116.15 31.9233C114.789 33.5021 112.887 34.2637 110.33 34.2637C107.774 34.2637 106.252 33.6105 104.947 32.3041C103.587 30.9977 102.934 29.255 102.934 27.0785V23.8125C102.934 21.6361 103.587 19.8933 104.947 18.5869C106.307 17.2806 108.101 16.6274 110.33 16.6274C112.56 16.6274 114.789 17.389 116.15 18.9678C117.51 20.5465 118.162 22.6701 118.162 25.4468C118.162 28.2235 117.51 30.3471 116.15 31.9258M118.379 13.0865C116.475 11.944 114.137 11.3438 111.419 11.3438C108.701 11.3438 107.285 11.7801 105.708 12.5947C104.131 13.4118 102.881 14.6097 101.957 16.1885H100.055V11.8885H93.6387V18.0952H96.7372V47.2193H102.881V34.9169H103.045C103.861 36.3873 105.002 37.5297 106.527 38.3469C108.048 39.164 109.844 39.5448 111.855 39.5448C113.865 39.5448 116.641 39.0001 118.487 37.8021C120.336 36.6596 121.75 35.0254 122.73 32.9019C123.71 30.7783 124.198 28.274 124.198 25.4443C124.198 22.6146 123.71 20.1102 122.677 17.9867C121.644 15.8632 120.231 14.2314 118.326 13.0865H118.382H118.379Z" fill="#0D1211"/>
<path d="M150.354 31.9233C148.994 33.5021 147.092 34.2637 144.535 34.2637C141.978 34.2637 140.457 33.6105 139.152 32.3041C137.791 30.9977 137.139 29.255 137.139 27.0785V23.8125C137.139 21.6335 137.791 19.8933 139.152 18.5869C140.512 17.2806 142.306 16.6274 144.535 16.6274C146.765 16.6274 148.994 17.389 150.354 18.9678C151.715 20.5465 152.367 22.6701 152.367 25.4468C152.367 28.2235 151.715 30.3471 150.354 31.9258M156.987 17.9867C155.954 15.8632 154.541 14.2314 152.637 13.0865C150.732 11.944 148.394 11.3438 145.676 11.3438C142.958 11.3438 141.542 11.7801 139.965 12.5947C138.388 13.4118 137.139 14.6097 136.214 16.1885H134.31V11.8885H127.894V18.0952H130.992V47.2193H137.136V34.9169H137.3C138.116 36.3873 139.258 37.5297 140.779 38.3469C142.301 39.164 144.097 39.5448 146.107 39.5448C148.117 39.5448 150.893 39.0001 152.743 37.8021C154.592 36.6596 156.005 35.0254 156.985 32.9019C157.962 30.7783 158.453 28.274 158.453 25.4443C158.453 22.6146 157.965 20.1077 156.932 17.9867H156.987Z" fill="#0D1211"/>
<path d="M55.2471 39.0002H32.1366V35.081L47.4176 16.8444H32.9528V11.9441H54.975V15.8633L39.6411 34.1H55.2471V39.0002ZM14.4649 3.66943V11.3994C17.4022 11.3994 19.9037 11.9971 21.9694 13.0866C24.0905 14.2291 25.7204 15.8633 26.8641 17.9869C28.0052 20.1104 28.6048 22.6147 28.6048 25.4999C28.6048 28.3851 28.0077 30.834 26.8641 32.9575C25.7229 35.081 24.0905 36.7128 21.9694 37.8577C19.8483 39.0002 17.3468 39.6005 14.412 39.6005V47.3304H59.2198V3.66943H14.4649Z" fill="#D40075"/>
<path d="M20.3924 31.8707C21.8056 30.2919 22.5135 28.1684 22.5135 25.4472C22.5135 22.7259 21.8056 20.5469 20.3924 18.9681C18.9791 17.4448 17.0218 16.6807 14.4648 16.6807V34.2111C17.0218 34.2111 18.9791 33.4495 20.3924 31.8707Z" fill="#D40075"/>
<path d="M14.4649 34.2111C11.9634 34.2111 9.9506 33.4495 8.53736 31.8707C7.12413 30.2919 6.41626 28.1684 6.41626 25.4471C6.41626 22.7259 7.12413 20.5469 8.53736 19.0236C9.9506 17.5003 11.908 16.6832 14.4649 16.6832V11.3491C11.583 11.3491 9.0815 11.9468 6.96039 13.0918C4.83928 14.2343 3.15398 15.8686 2.01281 17.9921C0.871648 20.1156 0.272095 22.5645 0.272095 25.4497C0.272095 28.3348 0.871648 30.7837 2.01281 32.9072C3.2094 35.0308 4.83928 36.665 6.96039 37.8075C9.0815 38.95 11.583 39.5502 14.4095 39.5502V34.2161H14.4649V34.2111Z" fill="#0D1211"/>
</g>
</g>
<defs>
<clipPath id="clip0_10922_17525">
<rect width="159" height="51" fill="white"/>
</clipPath>
</defs>
</svg>
